# xmcd
#
# Track frame offsets:
#	150
#	27642
#	44313
#	61472
#	81959
#	116232
#	141919
#	171275
#	190988
#	235375
#	254186
#	276540
#	305447
#
# Disc length: 4595 seconds
#
# Revision: 0
# Processed by: cddbd v1.5.2PL0 Copyright (c) Steve Scherf et al.
# Submitted via: EasyCDDAExtractor 16.0.8.1
#
DISCID=d111f10d
DTITLE=Earth, Wind and Fire - Live in Japan
DYEAR=2008
DGENRE=
TTITLE0=System Of Survival
TTITLE1=Get Away
TTITLE2=September
TTITLE3=Fantasy
TTITLE4=Shining Star
TTITLE5=Kalimba Tree
TTITLE6=After The Love Has Gone
TTITLE7=For The Love Of You
TTITLE8=Reasons
TTITLE9=Philip Bailey Scat
TTITLE10=Meet Earth, Wind and Fire
TTITLE11=Let's Groove
TTITLE12=That's The Way Of The World
EXTD=
EXTT0=
EXTT1=
EXTT2=
EXTT3=
EXTT4=
EXTT5=
EXTT6=
EXTT7=
EXTT8=
EXTT9=
EXTT10=
EXTT11=
EXTT12=
PLAYORDER=
